Coordinates
version=1
nRows=11
nColumns=42
inDegrees=yes

Units are S.I. units (second, meters, Newtons, ...)
If the header above contains a line with 'inDegrees', this indicates whether rotational values are in degrees (yes) or radians (no).

endheader
time	pelvis_tilt	pelvis_list	pelvis_rotation	pelvis_tx	pelvis_ty	pelvis_tz	hip_flexion_r	hip_adduction_r	hip_rotation_r	knee_angle_r	knee_adduction_r	knee_angle_r_beta	ankle_angle_r	subtalar_angle_r	mtp_angle_r	hip_flexion_l	hip_adduction_l	hip_rotation_l	knee_angle_l	knee_adduction_l	knee_angle_l_beta	ankle_angle_l	subtalar_angle_l	mtp_angle_l	lumbar_extension	lumbar_bending	lumbar_rotation	arm_flex_r	arm_add_r	arm_rot_r	elbow_flex_r	pro_sup_r	wrist_flex_r	wrist_dev_r	arm_flex_l	arm_add_l	arm_rot_l	elbow_flex_l	pro_sup_l	wrist_flex_l	wrist_dev_l
      8.50000000	      7.33861621	     -1.15296474	     -4.04094649	      0.97748476	      0.93846603	     -0.14628704	     10.81222938	     -9.04364587	    -24.77357626	     27.16392067	      5.55668142	      0.47409985	      5.76621442	     15.32599699	     -7.50018828	     -4.80913546	     -1.15040551	    -18.97773825	     25.21127859	      2.99303920	      0.44001982	     20.43090540	     -0.70415606	     -7.50018828	    -17.90030095	     -1.59008450	     -2.32767092	      5.62478438	     -7.84135029	      1.47991903	     38.03814423	     90.00000001	      0.00000000	      0.00000000	    -11.55338338	    -12.37262163	      0.11293109	     49.03230048	     90.00000001	      0.00000000	      0.00000000
      8.51000000	      7.45784201	     -0.99418178	     -3.73278949	      0.98059741	      0.93808784	     -0.14574619	     10.69399822	     -8.95322417	    -24.85269564	     27.50415652	      5.04589431	      0.48003809	      6.57214490	     14.57122731	     -7.50018666	     -5.10355713	     -0.95233182	    -18.65332945	     25.18192533	      2.82004313	      0.43950751	     20.71385130	     -0.59966346	     -7.50018666	    -17.94536376	     -1.58354150	     -2.44705840	      5.55980336	     -7.86744145	      1.37939320	     37.79088030	     90.00000001	      0.00000000	      0.00000000	    -11.25016243	    -12.36447251	      0.17190627	     48.82133579	     90.00000001	      0.00000000	      0.00000000
      8.52000000	      7.46803170	     -0.83700578	     -3.47582435	      0.98382147	      0.93759308	     -0.14517125	     10.65241329	     -8.94721625	    -24.69804463	     27.79923261	      4.81501228	      0.48518814	      7.03954168	     14.05186328	     -7.50018522	     -5.30372638	     -0.79474537	    -18.37725923	     25.14764737	      2.74543647	      0.43890925	     20.86826265	     -0.50295673	     -7.50018522	    -17.85654283	     -1.56828684	     -2.52340092	      5.44332091	     -7.90247772	      1.24373895	     37.57555043	     90.00000001	      0.00000000	      0.00000000	    -11.03355949	    -12.34366112	      0.21712766	     48.73918151	     90.00000001	      0.00000000	      0.00000000
      8.53000000	      7.43931480	     -0.71798007	     -3.23546079	      0.98719033	      0.93709366	     -0.14449962	     10.57036480	     -8.91872468	    -24.53693794	     27.92875887	      4.66111452	      0.48744880	      7.13504387	     13.95402925	     -7.50018496	     -5.46899115	     -0.74728012	    -18.32104560	     25.16577983	      2.70017624	      0.43922572	     20.90204779	     -0.49146489	     -7.50018496	    -17.71615566	     -1.52731440	     -2.59198363	      5.28015303	     -7.96828084	      1.20531080	     37.46085208	     90.00000001	      0.00000000	      0.00000000	    -10.91007727	    -12.30336365	      0.22639011	     48.76242258	     90.00000001	      0.00000000	      0.00000000
      8.54000000	      7.33071006	     -0.41317939	     -3.05862775	      0.99023566	      0.93643165	     -0.14383804	     10.84124311	     -9.13178397	    -23.90486082	     28.57783318	      4.61856232	      0.49877728	      7.98525521	     12.20097833	     -7.50017834	     -5.58446212	     -0.33208277	    -17.83220352	     24.94365020	      2.58274478	      0.43534882	     21.12680067	     -0.52132337	     -7.50017834	    -17.51205051	     -1.68722362	     -2.63059302	      5.29957078	     -7.84301381	      0.54309187	     37.01608804	     90.00000001	      0.00000000	      0.00000000	    -10.63988802	    -12.29536705	      0.30947294	     48.55958087	     90.00000001	      0.00000000	      0.00000000
      8.55000000	      7.37507132	     -0.37289294	     -2.84034885	      0.99353795	      0.93611003	     -0.14305874	     10.77111087	     -8.99934387	    -23.73591629	     28.89320330	      4.34334706	      0.50428153	      8.38191713	     11.85718802	     -7.50017714	     -5.86701728	     -0.31835117	    -17.63424101	     24.89239808	      2.49315396	      0.43445431	     21.22623206	     -0.50210195	     -7.50017714	    -17.47522217	     -1.55968098	     -2.66052050	      5.23100014	     -7.91777828	      0.47875263	     36.85769660	     90.00000001	      0.00000000	      0.00000000	    -10.45105265	    -12.21625410	      0.31872697	     48.50018935	     90.00000001	      0.00000000	      0.00000000
      8.56000000	      7.37013096	     -0.31606404	     -2.63694318	      0.99683869	      0.93577106	     -0.14225318	     10.72581303	     -8.93218787	    -23.55416749	     29.18011260	      4.16178124	      0.50928904	      8.68387500	     11.60949523	     -7.50017644	     -6.09866729	     -0.30533850	    -17.48205039	     24.82417730	      2.42310014	      0.43326363	     21.30827347	     -0.46638875	     -7.50017644	    -17.39282122	     -1.45472606	     -2.70247395	      5.16622612	     -7.99171368	      0.41524703	     36.72284644	     90.00000001	      0.00000000	      0.00000000	    -10.29390573	    -12.14241334	      0.31908555	     48.47514874	     90.00000001	      0.00000000	      0.00000000
      8.57000000	      7.24961804	     -0.07952509	     -2.51202349	      1.00011496	      0.93520854	     -0.14139863	     10.94298468	     -9.12003124	    -23.01085329	     29.75457676	      4.18978897	      0.51931533	      9.32731898	     10.44893215	     -7.50017063	     -6.29320869	     -0.03853051	    -17.17975300	     24.53859519	      2.42411073	      0.42827928	     21.44797778	     -0.45086021	     -7.50017063	    -17.16145897	     -1.55384549	     -2.72547815	      5.18428973	     -7.92275085	     -0.04596261	     36.37864269	     90.00000001	      0.00000000	      0.00000000	    -10.13248202	    -12.05169751	      0.21357595	     48.35371547	     90.00000001	      0.00000000	      0.00000000
      8.58000000	      7.24219934	     -0.06338119	     -2.35014503	      1.00343199	      0.93490007	     -0.14048184	     10.93293693	     -9.01938231	    -22.89135805	     30.12014818	      3.98134361	      0.52569576	      9.74876619	     10.09627704	     -7.50016904	     -6.58426930	     -0.09552827	    -17.07480779	     24.40149227	      2.43307507	      0.42588638	     21.56054664	     -0.41841738	     -7.50016904	    -17.08710960	     -1.40567423	     -2.73383250	      5.17417092	     -7.98373943	     -0.12953229	     36.22972329	     90.00000001	      0.00000000	      0.00000000	     -9.99239230	    -11.97129805	      0.20333331	     48.30906992	     90.00000001	      0.00000000	      0.00000000
      8.59000000	      7.18734714	     -0.02447491	     -2.15808748	      1.00672315	      0.93459640	     -0.13960789	     10.88519319	     -8.96816551	    -22.73104976	     30.32109579	      3.88869525	      0.52920295	      9.85557209	     10.03230913	     -7.50016871	     -6.76485902	     -0.13785043	    -17.03158886	     24.35314087	      2.36903212	      0.42504249	     21.58837817	     -0.39763723	     -7.50016871	    -16.96390481	     -1.28526960	     -2.79969164	      5.12147475	     -8.08217601	     -0.17482130	     36.15097977	     90.00000001	      0.00000000	      0.00000000	     -9.89237522	    -11.88091657	      0.21313015	     48.34482055	     90.00000001	      0.00000000	      0.00000000
      8.60000000	      7.10631824	      0.07983864	     -2.09637189	      1.00998878	      0.93416915	     -0.13849960	     11.04431973	     -9.02174744	    -22.51961437	     30.92641650	      3.78990569	      0.53976779	     10.59077117	      9.46629598	     -7.50016562	     -7.06153920	     -0.05775277	    -16.86868153	     24.00150558	      2.40000182	      0.41890530	     21.78728703	     -0.14041244	     -7.50016562	    -16.80775508	     -1.26585786	     -2.79452321	      5.22111330	     -8.07309741	     -0.45492180	     35.88350337	     90.00000001	      0.00000000	      0.00000000	     -9.78518214	    -11.77233849	      0.09282036	     48.30506898	     90.00000001	      0.00000000	      0.00000000
